<svg xmlns="http://www.w3.org/2000/svg" width="240" height="240" viewBox="0 0 24 24" fill="none">
  <!-- 定义渐变 -->
  <defs>
    <linearGradient id="myGradient" x1="0%" y1="0%" x2="100%" y2="0%">
      <stop offset="0%" stop-color="#bd34fe" />
      <stop offset="30%" stop-color="#bd34fe" />
      <stop offset="100%" stop-color="#41d1ff" />
    </linearGradient>
  </defs>
  <path stroke="none" d="M0 0h24v24H0z" fill="none"/>
  <path d="M14 4a1 1 0 0 1 1 -1h5a1 1 0 0 1 1 1v5a1 1 0 0 1 -1 1h-5a1 1 0 0 1 -1 -1z" 
        fill="white" 
        stroke="url(#myGradient)" 
        stroke-width="2" 
        stroke-linecap="round" 
        stroke-linejoin="round"/>
  <path d="M3 14h12a2 2 0 0 1 2 2v3a2 2 0 0 1 -2 2h-10a2 2 0 0 1 -2 -2v-10a2 2 0 0 1 2 -2h3a2 2 0 0 1 2 2v12" 
        fill="white" 
        stroke="url(#myGradient)" 
        stroke-width="2" 
        stroke-linecap="round" 
        stroke-linejoin="round"/>
</svg>